<svg width="54" height="54" viewBox="0 0 54 54" fill="none" xmlns="http://www.w3.org/2000/svg">
<path d="M23.7822 2L11.901 9.1066L2 23.066M23.7822 2L40.1188 5.80711L50.5149 17.2284M23.7822 2L22.5446 11.1371M2 23.066L6.70297 37.0254L14.1287 50.731M2 23.066L6.70297 25.6041M14.1287 50.731L30.9604 52L43.8317 48.1929M14.1287 50.731L15.6139 45.401M43.8317 48.1929L52 32.9645L50.5149 17.2284M43.8317 48.1929L36.4059 43.3706M50.5149 17.2284L41.1089 22.3046M22.5446 11.1371L6.70297 25.6041M22.5446 11.1371L41.1089 22.3046M6.70297 25.6041L15.6139 45.401M15.6139 45.401L36.4059 43.3706M36.4059 43.3706L41.1089 22.3046" stroke="#4B7BD0" stroke-width="2"/>
</svg>
