<svg width="54" height="54" viewBox="0 0 54 54" fill="none" xmlns="http://www.w3.org/2000/svg">
<path d="M20.5185 2L2 19.7083M20.5185 2L45.9153 9.29167M20.5185 2L11.2593 22.0521M20.5185 2L37.9788 15.0208M2 19.7083C4.1164 28.2153 8.2963 45.1771 8.08466 44.9687M2 19.7083L11.2593 22.0521M8.08466 44.9687C7.87302 44.7604 24.7513 49.5694 33.2169 52M8.08466 44.9687L11.2593 22.0521M8.08466 44.9687L30.5714 41.5833M33.2169 52L52 33.7708M33.2169 52L30.5714 41.5833M52 33.7708L45.9153 9.29167M52 33.7708L30.5714 41.5833M52 33.7708L37.9788 15.0208M45.9153 9.29167L37.9788 15.0208M11.2593 22.0521L37.9788 15.0208M11.2593 22.0521L30.5714 41.5833M37.9788 15.0208L30.5714 41.5833" stroke="#4B7BD0" stroke-width="2"/>
</svg>
